<?xml version="1.0" encoding="utf-8"?>
<!-- Generator: Adobe Illustrator 28.0.0, SVG Export Plug-In . SVG Version: 6.00 Build 0)  -->
<svg version="1.1" id="Layer_1" xmlns="http://www.w3.org/2000/svg" xmlns:xlink="http://www.w3.org/1999/xlink" x="0px" y="0px"
	 viewBox="0 0 184.32 184.32" style="enable-background:new 0 0 184.32 184.32;" xml:space="preserve">
<style type="text/css">
	.st0{opacity:0.71;fill:#5AC5C4;}
	.st1{opacity:0.71;}
	.st2{fill:none;stroke:#314846;stroke-width:11;stroke-linecap:round;stroke-linejoin:round;}
	.st3{fill:#314846;}
</style>
<path class="st0" d="M121.57,162.81H62.75c-22.78,0-41.24-18.46-41.24-41.24V62.75c0-22.78,18.46-41.24,41.24-41.24h58.82
	c22.78,0,41.24,18.46,41.24,41.24v58.82C162.81,144.35,144.35,162.81,121.57,162.81z"/>
<g class="st1">
	<g>
		<line class="st2" x1="92.16" y1="140.62" x2="92.16" y2="82.87"/>
		<g>
			<path class="st3" d="M92.16,87.29c-11.49,11.49-34.22,16.97-49.99,17.42C63.34,88.96,81.8,68.48,92.16,43.7
				c9.92,24.78,29.5,44.35,49.99,61.02C125.27,103.36,104.77,99.24,92.16,87.29z"/>
		</g>
	</g>
</g>
</svg>
