<?xml version="1.0" encoding="UTF-8"?>
<svg id="Layer_1" data-name="Layer 1" xmlns="http://www.w3.org/2000/svg" viewBox="0 0 691.4 193.49">
  <defs>
    <style>
      .cls-1 {
        fill: #314846;
      }

      .cls-1, .cls-2, .cls-3 {
        stroke-width: 0px;
      }

      .cls-2 {
        fill: #5ac5c4;
      }

      .cls-3 {
        fill: #fff;
      }
    </style>
  </defs>
  <g>
    <circle class="cls-2" cx="96.74" cy="96.74" r="96.74"/>
    <path class="cls-3" d="m114.46,154.2c-.56,0-1.12-.11-1.65-.33-1.61-.67-2.66-2.24-2.66-3.99v-31.11h-26.8v31.11c0,1.75-1.05,3.32-2.66,3.99-1.61.67-3.47.3-4.7-.94l-35.43-35.43c-1.23-1.23-1.6-3.09-.94-4.7s2.24-2.66,3.99-2.66h31.11v-26.8h-31.11c-1.75,0-3.32-1.05-3.99-2.66s-.3-3.47.94-4.7l35.43-35.43c1.23-1.24,3.09-1.6,4.7-.94,1.61.67,2.66,2.24,2.66,3.99v31.11h26.8v-31.11c0-1.75,1.05-3.32,2.66-3.99,1.61-.67,3.47-.3,4.7.94l35.43,35.43c1.23,1.23,1.6,3.09.94,4.7s-2.24,2.66-3.99,2.66h-31.11v26.8h31.11c1.75,0,3.32,1.05,3.99,2.66s.3,3.47-.94,4.7l-35.43,35.43c-.83.83-1.93,1.26-3.05,1.26Zm4.32-35.43v20.69l20.69-20.69h-20.69Zm-64.75,0l20.69,20.69v-20.69h-20.69Zm29.32-8.63h26.8v-26.8h-26.8v26.8Zm35.43-35.43h20.69l-20.69-20.69v20.69Zm-64.75,0h20.69v-20.69l-20.69,20.69Z"/>
    <path class="cls-3" d="m182.01,95.92c-.02-9.17-1.01-18.19-3.67-27s-6.44-16.47-11.46-23.73c-9.91-14.31-24.18-25.43-40.5-31.49-17.07-6.33-36.09-6.99-53.56-1.89-16.76,4.89-31.8,15.03-42.69,28.66-11.07,13.86-17.57,31.02-18.5,48.72-.5,9.57-.22,19.31,1.8,28.7,1.87,8.68,5.12,17.06,9.58,24.73,8.74,15.02,22.07,27.21,37.84,34.54,16.42,7.63,35.18,9.81,52.92,6.21,17.26-3.5,33.19-12.45,45.22-25.3,12.09-12.92,19.97-29.51,22.27-47.05.59-4.47.75-8.95.76-13.45,0-1.21.21-2.62-.02-3.81-.06-.31-.02.33-.02.31-.04.61-.01,1.24-.01,1.85,0,3.95-.58,8.86-1.35,13.09-.77,4.25-1.87,8.44-3.28,12.52-2.77,7.99-6.74,15.56-11.73,22.39-9.96,13.61-23.93,24.13-39.79,29.88-16.52,5.99-34.84,6.69-51.78,2.02-16.38-4.52-31.21-14.03-42.22-26.96s-18.08-29.33-19.84-46.36c-.12-1.17-.22-2.35-.29-3.53-.03-.5-.06-1.01-.08-1.51-.01-.29-.02-.58-.03-.87-.07-2.02-.16.87-.02,1.09-.19-.29.04-1.26.05-1.64.02-.58.05-1.15.09-1.73.08-1.25.19-2.5.32-3.74.47-4.34,1.27-8.64,2.4-12.85,2.2-8.21,5.65-16.08,10.18-23.28,8.98-14.24,22.17-25.68,37.56-32.52,16.04-7.13,34.2-9.1,51.41-5.65,16.66,3.33,32.13,11.76,44.02,23.88,11.96,12.2,20.11,27.91,23.09,44.74.73,4.1,1.27,8.86,1.28,12.68,0,.61-.01,1.24.01,1.85,0-.13-.02.68.02.31.14-1.23.02-2.57.02-3.81Z"/>
  </g>
  <g>
    <path class="cls-1" d="m204.75,27.33l.51-.44c7.29.34,12.26.51,14.91.51l29.57-.63c8.42,0,15.33.79,20.72,2.37,5.39,1.58,10.18,4.32,14.37,8.21,4.19,3.9,7.37,8.43,9.54,13.58,2.17,5.16,3.25,10.67,3.25,16.52s-.99,11.31-2.97,16.87c-1.98,5.56-4.79,10.54-8.44,14.94-3.64,4.4-7.79,7.95-12.45,10.65-4.65,2.7-9.32,4.5-14,5.4s-9.46,1.36-14.34,1.36c-3.29,0-9.48-.13-18.58-.38-2.99-.08-4.97-.13-5.94-.13-2.91,0-6.42.17-10.55.51l-.51-.51v-2.08l.51-.63c2.48-1.26,3.91-2.05,4.26-2.37.36-.32.65-4,.88-11.06.23-7.06.35-12.44.35-16.14v-23.19l-.06-14.34c0-3.12-.04-5.65-.13-7.61-.08-1.96-.23-3.36-.44-4.2-.21-.84-.45-1.43-.73-1.77-.27-.34-.72-.62-1.33-.85-.61-.23-1.65-.43-3.13-.6l-4.8-.38-.51-.44v-3.16Zm23.38,82.46c4.3.84,9.25,1.26,14.85,1.26,9.81,0,17.66-1.64,23.54-4.93,5.88-3.29,10.27-8.15,13.17-14.6,2.91-6.44,4.36-13.71,4.36-21.8,0-11.92-3.18-21.17-9.54-27.74-6.36-6.57-16.39-9.86-30.08-9.86-5.65,0-11.08.42-16.3,1.26-.34,6.91-.51,14.7-.51,23.38v19.84l.13,18.58c0,3.62.13,8.49.38,14.6Z"/>
    <path class="cls-1" d="m324.87,55.95l1.2.82c-.46,5.52-.69,12.53-.69,21.04v14.72c0,5.39.41,9.14,1.23,11.25s2.24,3.72,4.27,4.83c2.02,1.12,4.42,1.67,7.2,1.67,3.07,0,5.88-.6,8.4-1.8s4.64-2.9,6.35-5.09c1.71-2.19,2.69-3.67,2.94-4.42.25-.76.42-2.89.51-6.38l.19-7.08v-6.82c0-1.68-.08-3.98-.25-6.89-.17-2.91-.31-4.7-.41-5.37-.11-.67-.43-1.17-.98-1.48s-1.64-.47-3.29-.47l-5.31-.06-.57-.51v-2.72l.51-.51c8.05-.97,14.83-2.55,20.35-4.74l1.2.82c-.46,5.52-.69,12.53-.69,21.04v11.12c0,.63.1,5.79.32,15.48.08,3.58.31,5.76.66,6.54.36.78.85,1.33,1.49,1.64.63.32,2.51.47,5.62.47h1.77l.57.5v2.53l-.51.57c-5.94-.34-9.92-.51-11.94-.51-2.57,0-5.54.15-8.91.44l-.57-.51c.25-4.3.44-7.94.57-10.93-2.65,2.06-5.69,4.82-9.1,8.28-1.31,1.31-3.18,2.4-5.62,3.29-2.44.88-5.22,1.33-8.34,1.33-4.72,0-8.39-.75-11.03-2.24-2.63-1.49-4.5-3.56-5.59-6.19-1.1-2.63-1.64-7.17-1.64-13.62l.06-4.99v-12.32c0-1.68-.08-3.98-.25-6.89-.17-2.91-.31-4.7-.41-5.37-.11-.67-.43-1.17-.98-1.48-.55-.32-1.64-.47-3.29-.47l-5.31-.06-.57-.51v-2.72l.51-.51c8.04-.97,14.83-2.55,20.35-4.74Z"/>
    <path class="cls-1" d="m404.67,22.59l1.2.76c-.46,4.84-.69,14.55-.69,29.13v39.62c0,.93.08,3.91.25,8.94.17,5.03.35,7.97.54,8.81.19.84.47,1.45.85,1.83s.84.62,1.39.73c.55.11,2.82.28,6.82.54l.57.51v2.65l-.51.57c-5.27-.34-10.34-.51-15.23-.51s-9.9.17-15.16.51l-.57-.57v-2.65l.57-.51c4.08-.25,6.39-.44,6.92-.57.53-.13.99-.39,1.39-.79s.67-1.01.82-1.83c.15-.82.32-3.54.5-8.15.19-4.61.29-8.1.29-10.46v-32.73l-.25-13.4c-.13-4.68-.26-7.92-.41-9.73-.15-1.81-.35-2.88-.6-3.22-.25-.34-.7-.59-1.33-.76-.63-.17-3.18-.25-7.65-.25l-.57-.57v-2.65l.5-.57c8.05-.93,14.83-2.48,20.35-4.68Z"/>
    <path class="cls-1" d="m442.33,22.59l1.2.76c-.46,4.84-.69,14.55-.69,29.13v39.62c0,.93.08,3.91.25,8.94.17,5.03.35,7.97.54,8.81.19.84.47,1.45.85,1.83s.84.62,1.39.73c.55.11,2.82.28,6.82.54l.57.51v2.65l-.51.57c-5.27-.34-10.34-.51-15.23-.51s-9.9.17-15.16.51l-.57-.57v-2.65l.57-.51c4.08-.25,6.39-.44,6.92-.57.53-.13.99-.39,1.39-.79s.67-1.01.82-1.83c.15-.82.32-3.54.5-8.15.19-4.61.29-8.1.29-10.46v-32.73l-.25-13.4c-.13-4.68-.26-7.92-.41-9.73-.15-1.81-.35-2.88-.6-3.22-.25-.34-.7-.59-1.33-.76-.63-.17-3.18-.25-7.65-.25l-.57-.57v-2.65l.5-.57c8.05-.93,14.83-2.48,20.35-4.68Z"/>
    <path class="cls-1" d="m480.62,55.95l1.2.82c-.25,2.44-.44,6.78-.57,13.02l4.74-6c1.56-1.98,2.94-3.51,4.14-4.58,1.2-1.07,2.6-1.91,4.2-2.5,1.6-.59,3.24-.88,4.93-.88,1.85,0,3.6.38,5.24,1.14l.44.88c-.67,5.6-1.05,10.53-1.14,14.79h-2.84c-1.68-3.88-4.4-5.81-8.15-5.81-2.61,0-4.89.83-6.82,2.5-1.94,1.66-3.23,3.75-3.89,6.26-.65,2.51-.98,5.68-.98,9.51v7.01c0,1.26.08,4.36.25,9.29.17,4.93.35,7.77.54,8.53.19.76.48,1.32.88,1.67.4.36.93.6,1.58.73.65.13,3.65.34,9,.63l.57.51v2.65l-.57.57c-5.6-.34-11.46-.51-17.56-.51-4.84,0-9.9.17-15.16.51l-.57-.57v-2.65l.57-.51c4.08-.25,6.39-.44,6.92-.57.53-.13.99-.39,1.39-.79s.67-1.01.82-1.83c.15-.82.32-3.54.5-8.15.19-4.61.29-8.1.29-10.46v-12.45c0-1.68-.08-3.98-.25-6.89-.17-2.91-.31-4.7-.41-5.37-.11-.67-.43-1.17-.98-1.48-.55-.32-1.64-.47-3.29-.47l-5.31-.06-.57-.51v-2.72l.5-.51c8.05-.97,14.83-2.55,20.35-4.74Z"/>
    <path class="cls-1" d="m511.76,87.22c0-5.01,1.03-9.85,3.1-14.5,2.06-4.65,5.66-8.68,10.77-12.07,5.12-3.39,11.19-5.09,18.23-5.09,8.85,0,16.05,2.79,21.61,8.37,5.56,5.58,8.34,12.75,8.34,21.51,0,9.65-3.19,17.59-9.57,23.82-6.38,6.23-14.08,9.35-23.09,9.35-5.9,0-11.16-1.59-15.8-4.77-4.63-3.18-8.06-7.07-10.27-11.66-2.21-4.59-3.32-9.58-3.32-14.97Zm11.94-4.36c0,5.9.76,11.17,2.27,15.83,1.52,4.66,3.92,8.39,7.2,11.22s7.03,4.23,11.25,4.23c4.97,0,9.08-1.97,12.32-5.91,3.24-3.94,4.87-9.87,4.87-17.79,0-8.97-1.76-16.32-5.28-22.05-3.52-5.73-8.58-8.59-15.2-8.59-5.48,0-9.75,1.98-12.83,5.94-3.08,3.96-4.61,9.67-4.61,17.12Z"/>
    <path class="cls-1" d="m591.5,73.32l-2.46-.63-.5-.63v-7.83c7.5-5.56,14.78-8.34,21.86-8.34,4.84,0,8.87.91,12.07,2.72,3.2,1.81,5.52,4.08,6.95,6.79,1.43,2.72,2.15,5.89,2.15,9.51l-.32,12.7v18.83c0,2.57.18,4.13.54,4.68.36.55.77.92,1.23,1.11.46.19,1.33.35,2.59.47l3.6.32.51.57v2.53l-.51.51c-3.08-.25-5.94-.38-8.59-.38s-5.56.13-9.1.38l-.95-.88.25-10.17-13.77,10.74c-2.32.97-4.84,1.45-7.58,1.45-3.37,0-6.27-.61-8.69-1.83-2.42-1.22-4.28-2.93-5.56-5.12-1.29-2.19-1.93-4.84-1.93-7.96,0-6.19,1.94-11.03,5.81-14.5,3.88-3.48,14.45-6.43,31.72-8.88,0-6.23-1.39-10.62-4.17-13.17-2.78-2.55-6.51-3.82-11.18-3.82-2.44,0-4.67.36-6.67,1.07-2,.72-3.15,1.3-3.44,1.74-.29.44-1.43,3.02-3.41,7.74l-.44.32Zm29.32,9.98c-11.79,1.98-19.14,4.11-22.05,6.38-2.91,2.27-4.36,5.79-4.36,10.55,0,6.57,3.26,9.86,9.79,9.86,5.6,0,11.14-3.24,16.62-9.73v-17.06Z"/>
    <path class="cls-1" d="m667.07,55.95l1.2.82c-.25,2.44-.44,6.78-.57,13.02l4.74-6c1.56-1.98,2.94-3.51,4.14-4.58,1.2-1.07,2.6-1.91,4.2-2.5,1.6-.59,3.24-.88,4.93-.88,1.85,0,3.6.38,5.24,1.14l.44.88c-.67,5.6-1.05,10.53-1.14,14.79h-2.84c-1.68-3.88-4.4-5.81-8.15-5.81-2.61,0-4.89.83-6.82,2.5-1.94,1.66-3.23,3.75-3.89,6.26-.65,2.51-.98,5.68-.98,9.51v7.01c0,1.26.08,4.36.25,9.29.17,4.93.35,7.77.54,8.53.19.76.48,1.32.88,1.67.4.36.93.6,1.58.73.65.13,3.65.34,9,.63l.57.51v2.65l-.57.57c-5.6-.34-11.46-.51-17.56-.51-4.84,0-9.9.17-15.16.51l-.57-.57v-2.65l.57-.51c4.08-.25,6.39-.44,6.92-.57.53-.13.99-.39,1.39-.79s.67-1.01.82-1.83c.15-.82.32-3.54.5-8.15.19-4.61.29-8.1.29-10.46v-12.45c0-1.68-.08-3.98-.25-6.89-.17-2.91-.31-4.7-.41-5.37-.11-.67-.43-1.17-.98-1.48-.55-.32-1.64-.47-3.29-.47l-5.31-.06-.57-.51v-2.72l.5-.51c8.05-.97,14.83-2.55,20.35-4.74Z"/>
  </g>
  <g>
    <path class="cls-1" d="m204.87,134.99l.22-.19c6.28.11,10.31.17,12.06.17,6.01,0,11.36-.05,16.05-.17l.14.19c-.46,1.76-.8,4.52-1.02,8.27l-.17.22h-1.35l-.25-.22c.02-.17.03-.31.03-.44,0-1.56-.12-3.04-.36-4.45-1.15-.51-2.75-.85-4.8-1-2.04-.16-3.58-.23-4.6-.23-1.45,0-3.3.1-5.55.3l-.11,4.4-.08,5.03-.08,5.58c1.98.11,3.8.17,5.47.17s3.1-.06,4.23-.17c1.14-.11,1.8-.22,1.99-.34s.34-.35.44-.69.19-.94.26-1.8l.11-1.7.22-.22h1.26l.22.22c-.04,2-.08,4-.14,6.02l.14,6.18-.22.22h-1.26l-.22-.22-.19-1.65c-.17-1.28-.28-2.05-.36-2.29-.07-.25-.24-.46-.51-.65-.27-.18-.95-.33-2.05-.44-1.1-.11-2.61-.17-4.53-.17-1.06,0-2.68.05-4.86.14-.09,1.54-.14,4.1-.14,7.7,0,3.85.05,6.68.14,8.49h5.06c4.45,0,7.24-.06,8.35-.17,1.12-.11,2.18-.38,3.19-.8.16-.42.44-1.4.81-2.93.38-1.53.59-2.49.65-2.87l.27-.19h1.32l.22.19c-.17.79-.33,2.16-.48,4.12-.16,1.96-.23,3.64-.23,5.03l-.19.22c-3.5-.11-8.08-.17-13.74-.17l-7.48-.05c-1.74,0-3.55.07-5.44.22l-.22-.22v-.91l.22-.27c1.08-.55,1.7-.89,1.86-1.03.16-.14.28-1.74.38-4.81.1-3.07.15-5.41.15-7.02v-10.09l-.03-6.24c0-1.36-.02-2.46-.06-3.31s-.1-1.46-.19-1.83c-.09-.37-.2-.62-.32-.77-.12-.15-.31-.27-.58-.37-.27-.1-.72-.19-1.36-.26l-2.09-.17-.22-.19v-1.37Z"/>
    <path class="cls-1" d="m250.87,173.82l-.25-.25v-1.26l.25-.22c1.12-.02,2.01-.08,2.68-.19.67-.11,1.1-.29,1.29-.55.19-.26.32-.67.38-1.24.06-.57.13-1.85.19-3.85.06-2,.1-3.43.1-4.29v-22.21c0-.93-.17-1.63-.51-2.08-.34-.45-.8-.73-1.39-.85s-1.58-.19-3-.21l-.22-.22v-1.29l.22-.25c2.53.09,4.19.14,4.97.14,1.85,0,3.37-.04,4.56-.14l8.77,11.38,12.89,16.16c1.56,1.96,3.14,3.82,4.75,5.58v-21.27c0-.66-.03-2.07-.1-4.22-.06-2.15-.14-3.52-.23-4.09s-.25-.97-.48-1.17c-.23-.2-.66-.35-1.29-.45s-1.49-.16-2.57-.18l-.22-.22v-1.26l.22-.25c1.48.09,3.6.14,6.35.14,2.51,0,4.33-.04,5.47-.14l.25.25v1.26l-.22.22c-1.21.02-2.14.09-2.8.21s-1.07.32-1.24.59c-.16.27-.28.68-.34,1.21-.06.53-.13,1.8-.19,3.79-.06,2-.1,3.44-.1,4.31v13.05l.03,7.56c.04,2.47.07,4.96.11,7.45-.92-.31-2.5-.7-4.75-1.15l-1.95-2.31-5.85-7.15-18.63-23.28v21.08c0,.84.03,2.35.1,4.51.06,2.16.14,3.47.23,3.93.09.46.21.77.36.95.15.17.46.33.95.48.49.15,1.49.23,3.01.25l.22.22v1.29l-.22.22c-.95-.13-2.49-.19-4.62-.19-2.73,0-5.12.06-7.17.19Z"/>
    <path class="cls-1" d="m340.83,134.79l.25.25c-.16,1.65-.25,4.53-.25,8.63l-.22.22h-1.29l-.22-.25-.3-2.53c-.15-1.36-.26-2.18-.34-2.49-.08-.3-.22-.52-.4-.66-.18-.14-.78-.25-1.79-.34-1.01-.09-2.13-.14-3.38-.14h-5.19c-.15,4.14-.22,6.53-.22,7.17v16.02l.05,5.36c.02,2.07.07,3.41.15,4.03.08.61.21,1.02.38,1.21.17.19.51.36,1,.49.5.14,1.72.24,3.68.32l.19.17v1.37l-.19.22c-4.69-.15-7.31-.22-7.86-.22-.59,0-3.2.07-7.83.22l-.22-.22v-1.37l.22-.17c1.72-.07,2.86-.17,3.42-.27.56-.11.93-.25,1.13-.43.19-.17.35-.54.48-1.11.13-.57.19-1.83.19-3.79l.05-5.8v-16.02c0-.29-.07-2.68-.22-7.17h-4.09c-1.69,0-3.14.04-4.37.11s-1.94.26-2.13.56c-.19.3-.37,1.29-.54,2.95l-.27,2.53-.25.25h-1.26l-.22-.22c-.04-4.42-.12-7.29-.25-8.63l.25-.25c3.19.15,8.49.22,15.91.22s12.88-.07,15.94-.22Z"/>
    <path class="cls-1" d="m355.97,134.99l.22-.19c6.28.11,10.31.17,12.06.17,6.01,0,11.36-.05,16.05-.17l.14.19c-.46,1.76-.8,4.52-1.02,8.27l-.17.22h-1.35l-.25-.22c.02-.17.03-.31.03-.44,0-1.56-.12-3.04-.36-4.45-1.15-.51-2.75-.85-4.8-1-2.04-.16-3.58-.23-4.6-.23-1.45,0-3.3.1-5.55.3l-.11,4.4-.08,5.03-.08,5.58c1.98.11,3.8.17,5.47.17s3.1-.06,4.23-.17c1.14-.11,1.8-.22,1.99-.34s.34-.35.44-.69.19-.94.26-1.8l.11-1.7.22-.22h1.26l.22.22c-.04,2-.08,4-.14,6.02l.14,6.18-.22.22h-1.26l-.22-.22-.19-1.65c-.17-1.28-.28-2.05-.36-2.29-.07-.25-.24-.46-.51-.65-.27-.18-.95-.33-2.05-.44-1.1-.11-2.61-.17-4.54-.17-1.06,0-2.68.05-4.86.14-.09,1.54-.14,4.1-.14,7.7,0,3.85.05,6.68.14,8.49h5.06c4.45,0,7.24-.06,8.36-.17,1.12-.11,2.18-.38,3.19-.8.17-.42.44-1.4.81-2.93.38-1.53.59-2.49.65-2.87l.27-.19h1.32l.22.19c-.17.79-.33,2.16-.48,4.12-.16,1.96-.23,3.64-.23,5.03l-.19.22c-3.5-.11-8.08-.17-13.74-.17l-7.48-.05c-1.74,0-3.55.07-5.44.22l-.22-.22v-.91l.22-.27c1.08-.55,1.7-.89,1.86-1.03.16-.14.28-1.74.38-4.81.1-3.07.15-5.41.15-7.02v-10.09l-.03-6.24c0-1.36-.02-2.46-.05-3.31s-.1-1.46-.19-1.83c-.09-.37-.2-.62-.32-.77s-.31-.27-.58-.37-.72-.19-1.36-.26l-2.09-.17-.22-.19v-1.37Z"/>
    <path class="cls-1" d="m401.32,134.99l.22-.19c3.35.15,5.96.22,7.83.22,2.07,0,4.86-.06,8.38-.19,1.3-.04,2.24-.05,2.83-.05,4.64,0,7.78.84,9.43,2.53,1.65,1.69,2.47,3.68,2.47,5.99,0,1.54-.4,3.05-1.21,4.54-.81,1.48-2,2.75-3.57,3.81-1.58,1.05-3.75,1.85-6.51,2.38.51.71,1.44,1.95,2.78,3.71l3.9,5.17c1.26,1.7,2.62,3.5,4.07,5.4s2.38,2.97,2.8,3.22c.42.25.78.4,1.08.45.3.06.78.08,1.44.08l.22.22v1.29l-.25.25c-.88-.11-1.92-.17-3.13-.17-1.3,0-2.72.05-4.26.17-1.26-1.54-3.25-4.21-5.96-8-3.15-4.4-6.38-8.47-9.67-12.23l.27-.85c.95.06,1.7.08,2.23.08,3.17,0,5.65-.76,7.45-2.28,1.79-1.52,2.69-3.63,2.69-6.32,0-2.42-.81-4.25-2.42-5.48-1.61-1.24-3.79-1.86-6.54-1.86-1.92,0-3.74.27-5.44.8-.28.4-.41,3.84-.41,10.31v12.72l.03,5.36c.02,2.07.07,3.41.17,4.01.09.61.22,1.01.4,1.21.17.2.51.37,1,.51.5.14,1.71.24,3.66.32l.22.17v1.37l-.22.22c-.09,0-1.7-.05-4.84-.17-1.3-.04-2.32-.05-3.05-.05-.57,0-3.19.07-7.86.22l-.22-.22v-1.37l.22-.17c1.7-.07,2.84-.17,3.41-.27.57-.11.95-.25,1.14-.43.19-.17.35-.54.47-1.11.12-.57.19-1.83.21-3.79l.03-5.8v-12.72l-.05-5.36c-.02-2.09-.07-3.44-.15-4.04-.08-.6-.21-1.01-.38-1.21-.17-.2-.51-.37-1-.5-.49-.13-1.71-.23-3.66-.3l-.22-.19v-1.37Z"/>
    <path class="cls-1" d="m451.21,134.79c4.62.15,7.56.22,8.82.22,1.72,0,3.66-.04,5.8-.14,2.27-.07,3.67-.11,4.21-.11,2.57,0,4.69.27,6.36.8,1.68.53,3.06,1.5,4.16,2.91,1.1,1.41,1.65,3.12,1.65,5.11,0,1.65-.38,3.24-1.15,4.78s-1.84,2.85-3.21,3.93-2.77,1.86-4.18,2.32c-1.41.47-2.88.7-4.4.7-1.14,0-2.4-.13-3.79-.38l-.47-1.68.25-.27c1.38.31,2.49.47,3.35.47,2.4,0,4.33-.79,5.79-2.38,1.46-1.58,2.18-3.61,2.18-6.09s-.76-4.48-2.27-5.96c-1.51-1.48-3.8-2.23-6.86-2.23-1.67,0-3.5.31-5.5.93-.17,1.41-.25,4.82-.25,10.22v12.72l.03,5.36c.02,2.07.07,3.41.17,4.01.09.61.22,1.01.4,1.21.17.2.51.37,1,.51.5.14,1.71.24,3.66.32l.22.17v1.37l-.22.22c-4.67-.15-7.3-.22-7.89-.22-.62,0-3.24.07-7.86.22l-.22-.22v-1.37l.22-.17c1.7-.07,2.84-.17,3.41-.27.57-.11.95-.25,1.14-.43.19-.17.35-.54.47-1.11.12-.57.19-1.83.21-3.79l.03-5.8v-12.72l-.06-5.36c-.02-2.09-.07-3.44-.15-4.04-.08-.6-.21-1.01-.38-1.21-.17-.2-.51-.37-1-.5-.49-.13-1.71-.23-3.66-.3l-.22-.19v-1.37l.22-.19Z"/>
    <path class="cls-1" d="m496.56,134.99l.22-.19c3.35.15,5.96.22,7.83.22,2.07,0,4.86-.06,8.38-.19,1.3-.04,2.24-.05,2.83-.05,4.64,0,7.78.84,9.43,2.53,1.65,1.69,2.47,3.68,2.47,5.99,0,1.54-.4,3.05-1.21,4.54-.81,1.48-2,2.75-3.57,3.81-1.58,1.05-3.75,1.85-6.51,2.38.51.71,1.44,1.95,2.78,3.71l3.9,5.17c1.26,1.7,2.62,3.5,4.07,5.4s2.38,2.97,2.8,3.22c.42.25.78.4,1.08.45.3.06.78.08,1.44.08l.22.22v1.29l-.25.25c-.88-.11-1.92-.17-3.13-.17-1.3,0-2.72.05-4.26.17-1.26-1.54-3.25-4.21-5.96-8-3.15-4.4-6.38-8.47-9.67-12.23l.27-.85c.95.06,1.7.08,2.23.08,3.17,0,5.65-.76,7.45-2.28,1.79-1.52,2.69-3.63,2.69-6.32,0-2.42-.81-4.25-2.42-5.48-1.61-1.24-3.79-1.86-6.54-1.86-1.92,0-3.74.27-5.44.8-.28.4-.41,3.84-.41,10.31v12.72l.03,5.36c.02,2.07.07,3.41.17,4.01.09.61.22,1.01.4,1.21.17.2.51.37,1,.51.5.14,1.71.24,3.66.32l.22.17v1.37l-.22.22c-.09,0-1.7-.05-4.84-.17-1.3-.04-2.32-.05-3.05-.05-.57,0-3.19.07-7.86.22l-.22-.22v-1.37l.22-.17c1.7-.07,2.84-.17,3.41-.27.57-.11.95-.25,1.14-.43.19-.17.35-.54.47-1.11.12-.57.19-1.83.21-3.79l.03-5.8v-12.72l-.05-5.36c-.02-2.09-.07-3.44-.15-4.04-.08-.6-.21-1.01-.38-1.21-.17-.2-.51-.37-1-.5-.49-.13-1.71-.23-3.66-.3l-.22-.19v-1.37Z"/>
    <path class="cls-1" d="m546.44,134.79l3.44.11c2.25.07,3.73.11,4.42.11.62,0,3.25-.07,7.89-.22l.22.19v1.37l-.22.19c-1.26.04-2.24.09-2.93.17s-1.19.21-1.5.41c-.31.2-.52.67-.62,1.42s-.15,1.77-.15,3.09l-.05,6.32v12.72l.03,5.36c.02,2.07.07,3.41.17,4.01.09.61.22,1.01.4,1.21.17.2.51.37,1,.51.5.14,1.71.24,3.66.32l.22.17v1.37l-.22.22c-.09,0-1.7-.05-4.84-.17-1.3-.04-2.32-.05-3.05-.05-.57,0-3.19.07-7.86.22l-.22-.22v-1.37l.22-.17c1.7-.07,2.84-.17,3.41-.27.57-.11.95-.25,1.14-.43.19-.17.35-.54.47-1.11.12-.57.19-1.83.21-3.79l.03-5.8v-12.72l-.06-5.36c-.02-2.09-.07-3.44-.15-4.04-.08-.6-.21-1.01-.38-1.21-.17-.2-.51-.37-1-.5-.49-.13-1.71-.23-3.66-.3l-.22-.19v-1.37l.22-.19Z"/>
    <path class="cls-1" d="m577.77,164.17l.22-.22h1.35l.22.22c.09,2.35.21,3.78.37,4.3.16.52.65,1.07,1.48,1.65s1.94,1.05,3.33,1.42c1.38.37,2.78.55,4.19.55,1.94,0,3.69-.36,5.24-1.07,1.55-.71,2.75-1.76,3.61-3.15.86-1.38,1.29-2.94,1.29-4.66,0-1.21-.21-2.26-.62-3.16-.41-.9-.99-1.62-1.73-2.16-.74-.54-1.59-.94-2.54-1.21-.95-.27-2.37-.55-4.26-.87-1.83-.29-3.27-.56-4.3-.8-1.04-.24-2.07-.6-3.09-1.1-1.03-.5-1.88-1.12-2.57-1.88-.69-.76-1.24-1.69-1.65-2.8-.41-1.11-.62-2.29-.62-3.56,0-3.43,1.19-6.23,3.57-8.42s5.58-3.28,9.59-3.28c1.59,0,3.33.2,5.21.59,1.88.39,3.59.98,5.13,1.75l.19.33c-.4,1.69-.65,4.09-.74,7.2l-.25.22h-1.43l-.22-.19c-.04-2.2-.09-3.58-.17-4.15s-.91-1.27-2.5-2.12c-1.59-.84-3.33-1.26-5.19-1.26-1.56,0-3.01.31-4.37.93-1.36.62-2.38,1.6-3.08,2.94-.7,1.34-1.04,2.7-1.04,4.1,0,1.08.21,2.04.63,2.87.42.83.97,1.49,1.63,1.98s1.45.85,2.34,1.08c.89.24,2.51.53,4.88.88,3.24.46,5.6,1.01,7.08,1.66s2.66,1.68,3.55,3.09c.89,1.41,1.33,3.12,1.33,5.11,0,3.9-1.59,7.16-4.77,9.76s-7.03,3.9-11.56,3.9c-3.79,0-7.12-.68-9.98-2.03l-.17-.36c.18-1.15.32-3.85.41-8.08Z"/>
    <path class="cls-1" d="m618.97,134.99l.22-.19c6.28.11,10.31.17,12.06.17,6.01,0,11.36-.05,16.05-.17l.14.19c-.46,1.76-.8,4.52-1.02,8.27l-.17.22h-1.35l-.25-.22c.02-.17.03-.31.03-.44,0-1.56-.12-3.04-.36-4.45-1.15-.51-2.75-.85-4.8-1-2.04-.16-3.58-.23-4.6-.23-1.45,0-3.3.1-5.55.3l-.11,4.4-.08,5.03-.08,5.58c1.98.11,3.8.17,5.47.17s3.1-.06,4.23-.17c1.14-.11,1.8-.22,1.99-.34s.34-.35.44-.69.19-.94.26-1.8l.11-1.7.22-.22h1.26l.22.22c-.04,2-.08,4-.14,6.02l.14,6.18-.22.22h-1.26l-.22-.22-.19-1.65c-.17-1.28-.28-2.05-.36-2.29-.07-.25-.24-.46-.51-.65-.27-.18-.95-.33-2.05-.44-1.1-.11-2.61-.17-4.54-.17-1.06,0-2.68.05-4.86.14-.09,1.54-.14,4.1-.14,7.7,0,3.85.05,6.68.14,8.49h5.06c4.45,0,7.24-.06,8.36-.17,1.12-.11,2.18-.38,3.19-.8.17-.42.44-1.4.81-2.93.38-1.53.59-2.49.65-2.87l.27-.19h1.32l.22.19c-.17.79-.33,2.16-.48,4.12-.16,1.96-.23,3.64-.23,5.03l-.19.22c-3.5-.11-8.08-.17-13.74-.17l-7.48-.05c-1.74,0-3.55.07-5.44.22l-.22-.22v-.91l.22-.27c1.08-.55,1.7-.89,1.86-1.03.16-.14.28-1.74.38-4.81.1-3.07.15-5.41.15-7.02v-10.09l-.03-6.24c0-1.36-.02-2.46-.05-3.31s-.1-1.46-.19-1.83c-.09-.37-.2-.62-.32-.77s-.31-.27-.58-.37-.72-.19-1.36-.26l-2.09-.17-.22-.19v-1.37Z"/>
    <path class="cls-1" d="m665.34,164.17l.22-.22h1.35l.22.22c.09,2.35.21,3.78.37,4.3.16.52.65,1.07,1.48,1.65s1.94,1.05,3.33,1.42c1.38.37,2.78.55,4.19.55,1.94,0,3.69-.36,5.24-1.07,1.55-.71,2.75-1.76,3.61-3.15.86-1.38,1.29-2.94,1.29-4.66,0-1.21-.21-2.26-.62-3.16-.41-.9-.99-1.62-1.73-2.16-.74-.54-1.59-.94-2.54-1.21-.95-.27-2.37-.55-4.26-.87-1.83-.29-3.27-.56-4.3-.8-1.04-.24-2.07-.6-3.09-1.1-1.03-.5-1.88-1.12-2.57-1.88-.69-.76-1.24-1.69-1.65-2.8-.41-1.11-.62-2.29-.62-3.56,0-3.43,1.19-6.23,3.57-8.42s5.58-3.28,9.59-3.28c1.59,0,3.33.2,5.21.59,1.88.39,3.59.98,5.13,1.75l.19.33c-.4,1.69-.65,4.09-.74,7.2l-.25.22h-1.43l-.22-.19c-.04-2.2-.09-3.58-.17-4.15s-.91-1.27-2.5-2.12c-1.59-.84-3.33-1.26-5.19-1.26-1.56,0-3.01.31-4.37.93-1.36.62-2.38,1.6-3.08,2.94-.7,1.34-1.04,2.7-1.04,4.1,0,1.08.21,2.04.63,2.87.42.83.97,1.49,1.63,1.98s1.45.85,2.34,1.08c.89.24,2.51.53,4.88.88,3.24.46,5.6,1.01,7.08,1.66s2.66,1.68,3.55,3.09c.89,1.41,1.33,3.12,1.33,5.11,0,3.9-1.59,7.16-4.77,9.76s-7.03,3.9-11.56,3.9c-3.79,0-7.12-.68-9.98-2.03l-.17-.36c.18-1.15.32-3.85.41-8.08Z"/>
  </g>
</svg>