<?xml version="1.0" encoding="utf-8"?>
<!-- Generator: Adobe Illustrator 28.0.0, SVG Export Plug-In . SVG Version: 6.00 Build 0)  -->
<svg version="1.1" id="Layer_1" xmlns="http://www.w3.org/2000/svg" xmlns:xlink="http://www.w3.org/1999/xlink" x="0px" y="0px"
	 viewBox="0 0 212.5 212.59" style="enable-background:new 0 0 212.5 212.59;" xml:space="preserve">
<style type="text/css">
	.st0{fill:#5AC5C4;}
	.st1{fill:#FFFFFF;}
</style>
<g>
	<g>
		<g>
			<circle class="st0" cx="106.25" cy="106.29" r="96.74"/>
		</g>
		<g>
			<path class="st1" d="M123.96,163.75c-0.56,0-1.12-0.11-1.65-0.33c-1.61-0.67-2.66-2.24-2.66-3.99v-31.11h-26.8v31.11
				c0,1.75-1.05,3.32-2.66,3.99c-1.61,0.67-3.47,0.3-4.7-0.94l-35.43-35.43c-1.23-1.23-1.6-3.09-0.94-4.7
				c0.67-1.61,2.24-2.66,3.99-2.66h31.11V92.9H53.11c-1.75,0-3.32-1.05-3.99-2.66c-0.67-1.61-0.3-3.47,0.94-4.7L85.48,50.1
				c1.23-1.24,3.09-1.6,4.7-0.94c1.61,0.67,2.66,2.24,2.66,3.99v31.11h26.8V53.16c0-1.75,1.05-3.32,2.66-3.99
				c1.61-0.67,3.47-0.3,4.7,0.94l35.43,35.43c1.23,1.23,1.6,3.09,0.94,4.7c-0.67,1.61-2.24,2.66-3.99,2.66h-31.11v26.8h31.11
				c1.75,0,3.32,1.05,3.99,2.66c0.67,1.61,0.3,3.47-0.94,4.7l-35.43,35.43C126.19,163.31,125.08,163.75,123.96,163.75z
				 M128.28,128.32v20.69l20.69-20.69H128.28z M63.53,128.32l20.69,20.69v-20.69H63.53z M92.85,119.69h26.8V92.9h-26.8V119.69z
				 M128.28,84.27h20.69l-20.69-20.69V84.27z M63.53,84.27h20.69V63.57L63.53,84.27z"/>
		</g>
		<g>
			<path class="st1" d="M191.51,105.47c-0.02-9.17-1.01-18.19-3.67-27c-2.56-8.44-6.44-16.47-11.46-23.73
				c-9.91-14.31-24.18-25.43-40.5-31.49c-17.07-6.33-36.09-6.99-53.56-1.89c-16.76,4.89-31.8,15.03-42.69,28.66
				c-11.07,13.86-17.57,31.02-18.5,48.72c-0.5,9.57-0.22,19.31,1.8,28.7c1.87,8.68,5.12,17.06,9.58,24.73
				c8.74,15.02,22.07,27.21,37.84,34.54c16.42,7.63,35.18,9.81,52.92,6.21c17.26-3.5,33.19-12.45,45.22-25.3
				c12.09-12.92,19.97-29.51,22.27-47.05c0.59-4.47,0.75-8.95,0.76-13.45c0-1.21,0.21-2.62-0.02-3.81
				c-0.06-0.31-0.02,0.33-0.02,0.31c-0.04,0.61-0.01,1.24-0.01,1.85c-0.01,3.95-0.58,8.86-1.35,13.09
				c-0.77,4.25-1.87,8.44-3.28,12.52c-2.77,7.99-6.74,15.56-11.73,22.39c-9.96,13.61-23.93,24.13-39.79,29.88
				c-16.52,5.99-34.84,6.69-51.78,2.02c-16.38-4.52-31.21-14.03-42.22-26.96c-11.1-13.04-18.08-29.33-19.84-46.36
				c-0.12-1.17-0.22-2.35-0.29-3.53c-0.03-0.5-0.06-1.01-0.08-1.51c-0.01-0.29-0.02-0.58-0.03-0.87c-0.07-2.02-0.16,0.87-0.02,1.09
				c-0.19-0.29,0.04-1.26,0.05-1.64c0.02-0.58,0.05-1.15,0.09-1.73c0.08-1.25,0.19-2.5,0.32-3.74c0.47-4.34,1.27-8.64,2.4-12.85
				c2.2-8.21,5.65-16.08,10.18-23.28c8.98-14.24,22.17-25.68,37.56-32.52c16.04-7.13,34.2-9.1,51.41-5.65
				c16.66,3.33,32.13,11.76,44.02,23.88c11.96,12.2,20.11,27.91,23.09,44.74c0.73,4.1,1.27,8.86,1.28,12.68
				c0,0.61-0.01,1.24,0.01,1.85c-0.01-0.13-0.02,0.68,0.02,0.31C191.63,108.05,191.52,106.71,191.51,105.47z"/>
		</g>
	</g>
</g>
</svg>
