<?xml version="1.0" encoding="utf-8"?>
<!-- Generator: Adobe Illustrator 28.0.0, SVG Export Plug-In . SVG Version: 6.00 Build 0)  -->
<svg version="1.1" id="Layer_1" xmlns="http://www.w3.org/2000/svg" xmlns:xlink="http://www.w3.org/1999/xlink" x="0px" y="0px"
	 viewBox="0 0 176.8 130" style="enable-background:new 0 0 176.8 130;" xml:space="preserve">
<style type="text/css">
	.st0{opacity:0.25;}
	.st1{fill:#5AC5C4;}
</style>
<g class="st0">
	<path class="st1" d="M33.8,66.1c0,1.7,0.2,2.8,0.8,3.4l1.5,0.7l3-0.5c2.5-0.5,4.8-0.7,6.8-0.7c10.2,0,18.5,2.2,24.8,6.5
		c6.2,4.3,9.4,10.8,9.4,19.5c0,9.3-3.4,16.3-10.3,21.2c-6.9,4.9-15.2,7.3-24.9,7.3c-9.5,0-18-2.7-25.5-8.2
		C11.7,109.9,8,102.3,8,92.4c0-13.7,5.3-28.1,15.9-43.2C34.5,34,47.5,21.5,62.7,11.6c5.7-3.5,9.4-5.2,10.9-5.2
		C75.8,7.3,77,8.1,77,8.9c0,1.2-1,2.7-3,4.3c-14.3,11.1-24.5,21-30.8,29.6C37,51.4,33.8,59.1,33.8,66.1z M122.7,66.1
		c0,1.7,0.2,2.8,0.8,3.4l1.5,0.7l3-0.5c2.5-0.5,4.7-0.7,6.8-0.7c10.2,0,18.5,2.2,24.8,6.5c6.2,4.3,9.4,10.8,9.4,19.5
		c0,9.3-3.4,16.3-10.3,21.2c-6.9,4.9-15.2,7.3-24.9,7.3c-9.5,0-18-2.7-25.5-8.2s-11.2-13.2-11.2-23c0-13.7,5.3-28.1,15.9-43.2
		s23.6-27.6,38.8-37.5c5.8-3.5,9.4-5.2,10.9-5.2c2.2,0.9,3.4,1.7,3.4,2.5c0,1.2-1,2.7-3,4.3c-14.2,11.1-24.5,20.9-30.8,29.5
		C125.8,51.4,122.7,59.1,122.7,66.1z"/>
</g>
</svg>
