<?xml version="1.0" encoding="utf-8"?>
<!-- Generator: Adobe Illustrator 28.0.0, SVG Export Plug-In . SVG Version: 6.00 Build 0)  -->
<svg version="1.1" id="Layer_1" xmlns="http://www.w3.org/2000/svg" xmlns:xlink="http://www.w3.org/1999/xlink" x="0px" y="0px"
	 viewBox="0 0 176.8 130" style="enable-background:new 0 0 176.8 130;" xml:space="preserve">
<style type="text/css">
	.st0{opacity:0.4;}
	.st1{fill:#5AC5C4;}
</style>
<g class="st0">
	<path class="st1" d="M142.9,63.9c0-1.7-0.2-2.8-0.8-3.4l-1.5-0.7l-3,0.5c-2.5,0.5-4.8,0.7-6.8,0.7c-10.2,0-18.5-2.2-24.8-6.5
		c-6.2-4.3-9.4-10.8-9.4-19.5c0-9.3,3.4-16.3,10.3-21.2c6.9-4.9,15.2-7.3,24.9-7.3c9.5,0,18,2.7,25.5,8.2c7.5,5.5,11.2,13.2,11.2,23
		c0,13.7-5.3,28.1-15.9,43.2c-10.6,15.1-23.5,27.7-38.8,37.5c-5.8,3.5-9.4,5.2-10.9,5.2c-2.2-0.9-3.4-1.8-3.4-2.5c0-1.2,1-2.7,3-4.3
		c14.2-11.1,24.5-20.9,30.8-29.5C139.8,78.7,142.9,70.9,142.9,63.9z M54.1,63.9c0-1.7-0.2-2.8-0.8-3.4l-1.5-0.7l-3,0.5
		c-2.5,0.5-4.7,0.7-6.8,0.7c-10.2,0-18.5-2.2-24.8-6.5C11.1,50.1,8,43.6,8,34.9c0-9.3,3.4-16.3,10.3-21.2c6.9-4.9,15.2-7.3,24.9-7.3
		c9.5,0,18,2.7,25.5,8.2c7.5,5.5,11.2,13.2,11.2,23c0,13.7-5.3,28.1-15.9,43.2C53.4,96,40.5,108.5,25.2,118.4
		c-5.8,3.5-9.4,5.2-10.9,5.2c-2.2-0.9-3.4-1.8-3.4-2.5c0-1.2,1-2.7,3-4.3c14.2-11.1,24.5-20.9,30.8-29.5
		C51,78.7,54.1,70.9,54.1,63.9z"/>
</g>
</svg>
